<?xml version="1.0" encoding="UTF-8"?>
<!DOCTYPE svg PUBLIC "-//W3C//DTD SVG 1.1//EN" "http://www.w3.org/Graphics/SVG/1.1/DTD/svg11.dtd">
<!-- Creator: CorelDRAW X5 -->
<svg xmlns="http://www.w3.org/2000/svg" xml:space="preserve" width="284.019mm" height="118.271mm" style="shape-rendering:geometricPrecision; text-rendering:geometricPrecision; image-rendering:optimizeQuality; fill-rule:evenodd; clip-rule:evenodd"
viewBox="0 0 94.031 39.1565"
 xmlns:xlink="http://www.w3.org/1999/xlink">
 <defs>
  <style type="text/css">
   <![CDATA[
    .fil1 {fill:mediumvioletred}
    .fil0 {fill:black;fill-rule:nonzero}
    .fil2 {fill:mediumvioletred;fill-rule:nonzero}
   ]]>
  </style>
 </defs>
 <g id="Слой_x0020_1">
  <metadata id="CorelCorpID_0Corel-Layer"/>
  <path class="fil0" d="M88.8002 19.9708l4.96101 0.82785c-0.640528,1.81882 -1.64358,3.20257 -3.02131,4.15127 -1.37167,0.95475 -3.09382,1.42607 -5.16041,1.42607 -3.26905,0 -5.68609,-1.06351 -7.25717,-3.20257 -1.23875,-1.71006 -1.86113,-3.87333 -1.86113,-6.47769 0,-3.11799 0.815766,-5.55922 2.44726,-7.32365 1.62547,-1.76446 3.68601,-2.64667 6.17555,-2.64667 2.79774,0 5.00328,0.924523 6.6227,2.77354 1.61339,1.84905 2.38684,4.67701 2.3204,8.48989l-12.4659 0c0.0362526,1.4744 0.435097,2.6225 1.20249,3.43827 0.767429,0.821791 1.7282,1.23269 2.87024,1.23269 0.779513,0 1.43209,-0.21149 1.96386,-0.63447 0.531737,-0.429038 0.936607,-1.11184 1.20246,-2.05451zm-38.8587 14.658l4.58537 0 0 4.37216 -4.58537 0 0 -4.37216zm-49.9415 -14.0416l4.9912 -0.76137c0.21149,0.966801 0.640495,1.704 1.29311,2.20555 0.646554,0.501544 1.55297,0.755345 2.72523,0.755345 1.28708,0 2.25388,-0.235658 2.90044,-0.713033 0.441123,-0.326306 0.658671,-0.773454 0.658671,-1.32333 0,-0.380702 -0.120875,-0.694891 -0.356533,-0.942666 -0.247742,-0.235658 -0.803648,-0.453174 -1.66172,-0.652579 -4.01228,-0.882245 -6.55622,-1.69195 -7.63181,-2.4231 -1.48649,-1.01517 -2.22971,-2.42915 -2.22971,-4.23589 0,-1.62547 0.640495,-2.99714 1.92758,-4.10293 1.28708,-1.11184 3.28114,-1.66775 5.9822,-1.66775 2.57416,0 4.48966,0.42298 5.74049,1.25685 1.25083,0.839934 2.10887,2.07865 2.58019,3.72226l-4.68906 0.864069c-0.199406,-0.731143 -0.580107,-1.29311 -1.14207,-1.67983 -0.561964,-0.392753 -1.35959,-0.586133 -2.39893,-0.586133 -1.31122,0 -2.24782,0.181263 -2.81585,0.54988 -0.374643,0.259827 -0.561964,0.598217 -0.561964,1.00911 0,0.356533 0.163153,0.652612 0.495485,0.900355 0.447181,0.332332 1.99409,0.797623 4.64678,1.4019 2.64667,0.598217 4.49572,1.33542 5.54714,2.21157 1.03931,0.888271 1.55899,2.12096 1.55899,3.69809 0,1.72215 -0.719092,3.20863 -2.16327,4.44738 -1.43815,1.23871 -3.56513,1.85507 -6.38704,1.85507 -2.56208,0 -4.58636,-0.519653 -6.08494,-1.55899 -1.49251,-1.03328 -2.46537,-2.44726 -2.92461,-4.22983zm19.5273 -13.4328l4.58636 0 0 2.56208c1.63756,-1.99406 3.59536,-2.99109 5.86133,-2.99109 1.20249,0 2.24786,0.247742 3.13007,0.743227 0.888271,0.495485 1.61339,1.24477 2.18141,2.24786 0.821791,-1.00309 1.71609,-1.75237 2.67084,-2.24786 0.954717,-0.495485 1.97591,-0.743227 3.06359,-0.743227 1.37773,0 2.55,0.283995 3.50471,0.845959 0.95475,0.555906 1.66778,1.38376 2.1391,2.46537 0.344416,0.803681 0.513628,2.10285 0.513628,3.8975l0 12.0188 -4.97309 0 0 -10.7438c0,-1.86719 -0.169179,-3.06965 -0.513628,-3.6135 -0.459232,-0.706975 -1.16621,-1.06347 -2.12096,-1.06347 -0.700916,0 -1.35353,0.21149 -1.96989,0.640495 -0.610301,0.42298 -1.05142,1.0454 -1.32333,1.86719 -0.271911,0.821791 -0.410896,2.1149 -0.410896,3.88538l0 9.02768 -4.97306 0 0 -10.3026c0,-1.83094 -0.090648,-3.00923 -0.265885,-3.541 -0.175237,-0.531737 -0.453207,-0.924523 -0.821791,-1.18435 -0.374643,-0.259827 -0.876186,-0.392753 -1.51671,-0.392753 -0.767396,0 -1.45626,0.205431 -2.06656,0.622385 -0.61636,0.410896 -1.05745,1.00911 -1.32333,1.78859 -0.265885,0.779513 -0.398811,2.06659 -0.398811,3.87333l0 9.13644 -4.97309 0 0 -18.7986zm30.4142 0l4.28164 0 0 2.76149c0.598217,-0.948692 1.41398,-1.71612 2.4412,-2.30225 1.02726,-0.592158 2.16933,-0.888238 3.42012,-0.888238 2.18141,0 4.03648,0.858044 5.5532,2.56811 1.52271,1.71006 2.28408,4.0969 2.28408,7.15447 0,3.1361 -0.767396,5.57733 -2.29619,7.31759 -1.53482,1.74029 -3.39592,2.61042 -5.57733,2.61042 -1.03931,0 -1.98197,-0.205431 -2.82793,-0.61636 -0.839934,-0.416921 -1.7282,-1.1239 -2.66481,-2.12698l0 9.47483 -4.61398 0 0 -25.9531zm4.56564 9.08208c0,2.10887 0.416954,3.67389 1.25689,4.67698 0.833875,1.00911 1.85507,1.51668 3.06359,1.51668 1.15416,0 2.11493,-0.465258 2.88233,-1.38978 0.767429,-0.924523 1.15416,-2.44726 1.15416,-4.55614 0,-1.97595 -0.398811,-3.43827 -1.19041,-4.39298 -0.791564,-0.95475 -1.77048,-1.43213 -2.93672,-1.43213 -1.21454,0 -2.22366,0.465291 -3.02734,1.40796 -0.803681,0.936607 -1.20249,2.32639 -1.20249,4.16941zm15.3519 9.71652l0 -25.953 4.97309 0 0 25.953 -4.97309 0zm19.2252 -11.0097c-0.0362857,-1.44418 -0.40487,-2.53788 -1.11184,-3.28716 -0.707008,-0.749286 -1.57108,-1.12393 -2.58625,-1.12393 -1.08768,0 -1.98197,0.398811 -2.68898,1.19038 -0.706975,0.785538 -1.05745,1.86113 -1.04537,3.22072l7.43244 0z"/>
  <polygon class="fil1" points="19.5245,1.24265 24.1099,1.24265 24.1099,5.61474 19.5245,5.61474 "/>
  <path class="fil2" d="M57.2074 32.4251l1.60614 0 0 0.897243c0.573453,-0.698334 1.25907,-1.04748 2.05262,-1.04748 0.421126,0 0.787194,0.0867744 1.09615,0.26029 0.311077,0.173516 0.56501,0.435925 0.763919,0.787194 0.287802,-0.351269 0.600965,-0.613678 0.935316,-0.787194 0.334351,-0.173516 0.691977,-0.26029 1.07288,-0.26029 0.482474,0 0.893005,0.0994545 1.22732,0.296278 0.334351,0.194671 0.584047,0.484559 0.74912,0.863374 0.12061,0.281413 0.179872,0.736407 0.179872,1.36488l0 4.20894 -1.74158 0 0 -3.76245c0,-0.65387 -0.0592291,-1.07496 -0.179839,-1.26543 -0.160836,-0.247577 -0.408412,-0.372425 -0.742764,-0.372425 -0.245491,0 -0.474031,0.0740612 -0.689858,0.224302 -0.213741,0.148122 -0.36822,0.366068 -0.463437,0.65387 -0.0952168,0.287802 -0.143885,0.740645 -0.143885,1.36068l0 3.16146 -1.74158 0 0 -3.60797c0,-0.64119 -0.0317169,-1.05381 -0.0930979,-1.24004 -0.061348,-0.186229 -0.158717,-0.323757 -0.287802,-0.414769 -0.131171,-0.090979 -0.306806,-0.137528 -0.531141,-0.137528 -0.268732,0 -0.509986,0.0719423 -0.723694,0.217946 -0.21586,0.143885 -0.370339,0.353388 -0.463437,0.626358 -0.0930979,0.273003 -0.139647,0.723727 -0.139647,1.35644l0 3.19956 -1.74158 0 0 -6.58323zm12.7221 2.00819l-1.58074 -0.285683c0.177753,-0.63692 0.482474,-1.10671 0.916279,-1.41355 0.435925,-0.30472 1.0792,-0.459199 1.93413,-0.459199 0.778718,0 1.35641,0.093131 1.73731,0.277208 0.378781,0.18411 0.647547,0.416888 0.802026,0.700453 0.154479,0.283565 0.232778,0.801993 0.232778,1.55956l-0.0190698 2.03359c0,0.57769 0.0275122,1.00517 0.0846555,1.28026 0.0550244,0.27297 0.160836,0.569215 0.313196,0.882411l-1.72463 0c-0.0444632,-0.116372 -0.101573,-0.287802 -0.167192,-0.514224 -0.0275122,-0.103692 -0.0486678,-0.171397 -0.061348,-0.205266 -0.298397,0.289921 -0.615797,0.505748 -0.954386,0.651785 -0.338556,0.143885 -0.700419,0.215827 -1.08556,0.215827 -0.677145,0 -1.21252,-0.18411 -1.6019,-0.550178 -0.391495,-0.36822 -0.586166,-0.833743 -0.586166,-1.39663 0,-0.370339 0.0888933,-0.702538 0.266647,-0.994578 0.177753,-0.292007 0.427449,-0.514224 0.746968,-0.668703 0.319552,-0.154479 0.782956,-0.289888 1.38607,-0.406294 0.812587,-0.15236 1.37756,-0.296245 1.69076,-0.427449l0 -0.173516c0,-0.33647 -0.0825367,-0.573453 -0.247577,-0.71737 -0.165073,-0.141766 -0.476117,-0.213708 -0.935316,-0.213708 -0.311077,0 -0.55233,0.061348 -0.725846,0.184077 -0.173516,0.120643 -0.313163,0.334351 -0.421093,0.64119zm2.32983 1.41359c-0.222184,0.0740612 -0.575572,0.162921 -1.06016,0.266614 -0.482474,0.103692 -0.797788,0.205266 -0.948029,0.302601 -0.226421,0.162954 -0.340675,0.366101 -0.340675,0.613678 0,0.245458 0.090979,0.454961 0.27297,0.632715 0.181991,0.177753 0.41265,0.266647 0.694063,0.266647 0.315315,0 0.613678,-0.103692 0.899362,-0.308958 0.211622,-0.156598 0.34915,-0.349183 0.414769,-0.577724 0.046549,-0.148122 0.0677046,-0.431687 0.0677046,-0.848542l0 -0.347031zm3.36675 3.16146l0 -9.0887 1.74367 0 0 4.82262 2.03782 -2.31715 2.14572 0 -2.24941 2.40393 2.41025 4.17931 -1.87699 0 -1.65692 -2.95622 -0.810468 0.848575 0 2.10765 -1.74367 0zm10.9361 -2.09493l1.73734 0.289888c-0.224336,0.636953 -0.575605,1.12155 -1.05808,1.45378 -0.480355,0.334351 -1.08344,0.499392 -1.80717,0.499392 -1.14482,0 -1.99124,-0.372425 -2.54145,-1.12155 -0.433773,-0.598846 -0.651752,-1.35641 -0.651752,-2.26845 0,-1.09191 0.285683,-1.94685 0.857017,-2.56473 0.569248,-0.617916 1.29086,-0.926874 2.16267,-0.926874 0.979779,0 1.75214,0.323757 2.31927,0.971304 0.56501,0.647514 0.835862,1.63785 0.812587,2.97314l-4.36554 0c0.0126801,0.516342 0.15236,0.918398 0.421093,1.20405 0.268766,0.287802 0.605203,0.431687 1.00517,0.431687 0.27297,0 0.50151,-0.0740612 0.687739,-0.222184 0.186196,-0.150241 0.327995,-0.389343 0.421093,-0.719456zm0.0994545 -1.76062c-0.0126801,-0.505748 -0.141766,-0.888767 -0.389376,-1.15118 -0.247577,-0.262376 -0.550178,-0.39358 -0.905685,-0.39358 -0.3809,0 -0.694096,0.139647 -0.941673,0.416855 -0.247577,0.275089 -0.370306,0.651785 -0.366068,1.1279l2.6028 0zm4.81838 3.85555l-1.74155 0 0 -6.58323 1.6167 0 0 0.935316c0.277208,-0.442248 0.526937,-0.734288 0.747002,-0.873935 0.222184,-0.13968 0.471879,-0.211622 0.753325,-0.211622 0.397851,0 0.778751,0.110049 1.14694,0.330114l-0.539617 1.51724c-0.292007,-0.188315 -0.564977,-0.283531 -0.816825,-0.283531 -0.245458,0 -0.450724,0.0655857 -0.620002,0.201028 -0.171397,0.13329 -0.302601,0.376663 -0.399937,0.727932 -0.0973688,0.351269 -0.146037,1.08768 -0.146037,2.2071l0 2.03359z"/>
 </g>
</svg>
