<?xml version="1.0" encoding="UTF-8"?>
<!DOCTYPE svg PUBLIC "-//W3C//DTD SVG 1.1//EN" "http://www.w3.org/Graphics/SVG/1.1/DTD/svg11.dtd">
<!-- Creator: CorelDRAW X5 -->
<svg xmlns="http://www.w3.org/2000/svg" xml:space="preserve" width="210mm" height="297mm" style="shape-rendering:geometricPrecision; text-rendering:geometricPrecision; image-rendering:optimizeQuality; fill-rule:evenodd; clip-rule:evenodd"
viewBox="0 0 210 297"
 xmlns:xlink="http://www.w3.org/1999/xlink">
 <defs>
  <style type="text/css">
   <![CDATA[
    .fil1 {fill:mediumvioletred}
    .fil0 {fill:black;fill-rule:nonzero}
    .fil2 {fill:mediumvioletred;fill-rule:nonzero}
   ]]>
  </style>
 </defs>
 <g id="Слой_x0020_1">
  <metadata id="CorelCorpID_0Corel-Layer"/>
  <path class="fil0" d="M802.154 4.3832l14.9846 2.5005c-1.9347,5.4937 -4.9644,9.6733 -9.1258,12.5388 -4.1431,2.8838 -9.3448,4.3074 -15.5869,4.3074 -9.8741,0 -17.1747,-3.2123 -21.9201,-9.6733 -3.7416,-5.1652 -5.6215,-11.6993 -5.6215,-19.5657 0,-9.4178 2.464,-16.7915 7.3919,-22.1209 4.9097,-5.3295 11.1335,-7.9942 18.6531,-7.9942 8.4505,0 15.1123,2.7925 20.0037,8.3774 4.8732,5.585 7.2094,14.1268 7.0087,25.6435l-37.6531 0c0.1095,4.4534 1.3142,7.9212 3.6321,10.3852 2.318,2.4822 5.22,3.7233 8.6695,3.7233 2.3545,0 4.3256,-0.6388 5.9318,-1.9164 1.6061,-1.2959 2.829,-3.3583 3.632,-6.2056zm-117.372 44.274l13.85 0 0 13.206 -13.85 0 0 -13.206zm-150.847 -42.4123l15.0758 -2.2997c0.6388,2.9202 1.9346,5.1469 3.9058,6.6618 1.9529,1.5149 4.6907,2.2815 8.2315,2.2815 3.8876,0 6.8078,-0.7118 8.7607,-2.1537 1.3324,-0.9856 1.9895,-2.3362 1.9895,-3.9971 0,-1.1499 -0.3651,-2.0989 -1.0769,-2.8473 -0.7483,-0.7118 -2.4274,-1.3688 -5.0192,-1.9711 -12.119,-2.6648 -19.8029,-5.1105 -23.0517,-7.3189 -4.4899,-3.0663 -6.7348,-7.3372 -6.7348,-12.7944 0,-4.9097 1.9346,-9.0528 5.8222,-12.3928 3.8876,-3.3583 9.9106,-5.0374 18.0691,-5.0374 7.7752,0 13.5609,1.2776 17.339,3.7963 3.7781,2.537 6.3698,6.2785 7.7934,11.243l-14.1632 2.6099c-0.6023,-2.2084 -1.7522,-3.9058 -3.4496,-5.0739 -1.6974,-1.1863 -4.1066,-1.7704 -7.2459,-1.7704 -3.9605,0 -6.7895,0.5475 -8.5052,1.6609 -1.1316,0.7848 -1.6974,1.8069 -1.6974,3.048 0,1.0769 0.4928,1.9712 1.4966,2.7195 1.3507,1.0038 6.0231,2.4092 14.0355,4.2344 7.9942,1.8069 13.5792,4.0336 16.755,6.68 3.1392,2.683 4.7089,6.4063 4.7089,11.17 0,5.2017 -2.172,9.6916 -6.5341,13.4332 -4.3439,3.7415 -10.7684,5.6032 -19.2919,5.6032 -7.7387,0 -13.853,-1.5696 -18.3794,-4.7089 -4.5081,-3.121 -7.4466,-7.3919 -8.8337,-12.7761zm58.9817 -40.5733l13.853 0 0 7.7387c4.9462,-6.023 10.8597,-9.0345 17.704,-9.0345 3.6321,0 6.7896,0.7483 9.4543,2.2449 2.683,1.4966 4.8732,3.7598 6.5889,6.7896 2.4822,-3.0298 5.1834,-5.293 8.0672,-6.7896 2.8837,-1.4966 5.9682,-2.2449 9.2535,-2.2449 4.1614,0 7.7022,0.8578 10.5859,2.5552 2.8838,1.6791 5.0375,4.1796 6.4611,7.4466 1.0403,2.4275 1.5514,6.3516 1.5514,11.7723l0 36.3024 -15.0211 0 0 -32.4513c0,-5.6398 -0.511,-9.2718 -1.5514,-10.9145 -1.3871,-2.1354 -3.5225,-3.2122 -6.4063,-3.2122 -2.1171,0 -4.0883,0.6388 -5.95,1.9346 -1.8434,1.2776 -3.1758,3.1576 -3.9971,5.6398 -0.8213,2.4822 -1.2411,6.388 -1.2411,11.7357l0 27.2679 -15.021 0 0 -31.1189c0,-5.5303 -0.2738,-9.0893 -0.8031,-10.6955 -0.5293,-1.6061 -1.3689,-2.7925 -2.4822,-3.5773 -1.1316,-0.7848 -2.6465,-1.1863 -4.5812,-1.1863 -2.3179,0 -4.3986,0.6205 -6.242,1.8799 -1.8617,1.2411 -3.194,3.048 -3.9971,5.4024 -0.8031,2.3545 -1.2046,6.2421 -1.2046,11.6993l0 27.5964 -15.0211 0 0 -56.7807zm91.8653 0l12.9326 0 0 8.341c1.8069,-2.8655 4.2709,-5.1835 7.3736,-6.9539 3.1028,-1.7886 6.5524,-2.6829 10.3304,-2.6829 6.5889,0 12.1921,2.5917 16.7733,7.7569 4.5993,5.1652 6.899,12.3746 6.899,21.6099 0,9.4725 -2.3179,16.8462 -6.9356,22.1026 -4.6359,5.2565 -10.2573,7.8847 -16.8462,7.8847 -3.1392,0 -5.9865,-0.6205 -8.5417,-1.8617 -2.537,-1.2593 -5.22,-3.3947 -8.049,-6.4245l0 28.6185 -13.9364 0 0 -78.3906zm13.7904 27.4322c0,6.3698 1.2594,11.0969 3.7964,14.1267 2.5187,3.048 5.6032,4.5811 9.2535,4.5811 3.4861,0 6.3881,-1.4053 8.706,-4.1978 2.318,-2.7925 3.4861,-7.3919 3.4861,-13.7617 0,-5.9683 -1.2046,-10.3852 -3.5956,-13.2689 -2.3909,-2.8838 -5.3477,-4.3257 -8.8703,-4.3257 -3.6685,0 -6.7165,1.4054 -9.144,4.2527 -2.4275,2.829 -3.6321,7.0268 -3.6321,12.5936zm46.37 29.3485l0 -78.3905 15.0211 0 0 78.3905 -15.0211 0zm58.0693 -33.2544c-0.1096,-4.3621 -1.2229,-7.6656 -3.3583,-9.9288 -2.1355,-2.2632 -4.7454,-3.3948 -7.8117,-3.3948 -3.2853,0 -5.9865,1.2046 -8.122,3.5955 -2.1354,2.3727 -3.194,5.6215 -3.1575,9.7281l22.4495 0z"/>
  <polygon class="fil1" points="592.909,-52.1848 606.759,-52.1848 606.759,-38.979 592.909,-38.979 "/>
  <path class="fil2" d="M706.729 42.0011l4.8513 0 0 2.7101c1.7321,-2.1093 3.803,-3.1639 6.1999,-3.1639 1.272,0 2.3777,0.2621 3.3109,0.7862 0.9396,0.5241 1.7066,1.3167 2.3074,2.3777 0.8693,-1.061 1.8152,-1.8536 2.8251,-2.3777 1.0099,-0.5241 2.0901,-0.7862 3.2406,-0.7862 1.4573,0 2.6973,0.3004 3.7071,0.8949 1.0099,0.588 1.7641,1.4636 2.2627,2.6078 0.3643,0.85 0.5433,2.2243 0.5433,4.1226l0 12.713 -5.2604 0 0 -11.3644c0,-1.975 -0.1789,-3.2469 -0.5432,-3.8222 -0.4858,-0.7478 -1.2336,-1.1249 -2.2435,-1.1249 -0.7415,0 -1.4318,0.2237 -2.0837,0.6775 -0.6456,0.4474 -1.1122,1.1057 -1.3998,1.975 -0.2876,0.8693 -0.4346,2.2371 -0.4346,4.1099l0 9.5491 -5.2604 0 0 -10.8978c0,-1.9367 -0.0958,-3.183 -0.2812,-3.7455 -0.1853,-0.5625 -0.4794,-0.9779 -0.8693,-1.2528 -0.3962,-0.2748 -0.9267,-0.4154 -1.6043,-0.4154 -0.8117,0 -1.5404,0.2173 -2.1859,0.6583 -0.652,0.4346 -1.1186,1.0674 -1.3998,1.8919 -0.2812,0.8246 -0.4218,2.186 -0.4218,4.0971l0 9.6642 -5.2604 0 0 -19.8845zm38.4267 6.0657l-4.7746 -0.8629c0.5369,-1.9238 1.4573,-3.3428 2.7676,-4.2696 1.3167,-0.9204 3.2597,-1.387 5.842,-1.387 2.3521,0 4.097,0.2813 5.2475,0.8373 1.1441,0.5561 1.9559,1.2592 2.4225,2.1157 0.4666,0.8565 0.7031,2.4224 0.7031,4.7106l-0.0576 6.1424c0,1.7449 0.0831,3.0361 0.2557,3.867 0.1662,0.8245 0.4858,1.7193 0.946,2.6653l-5.2092 0c-0.1343,-0.3515 -0.3068,-0.8693 -0.505,-1.5532 -0.0831,-0.3132 -0.147,-0.5177 -0.1853,-0.62 -0.9013,0.8757 -1.86,1.5276 -2.8827,1.9687 -1.0226,0.4346 -2.1156,0.6519 -3.2789,0.6519 -2.0453,0 -3.6624,-0.5561 -4.8385,-1.6618 -1.1825,-1.1122 -1.7705,-2.5183 -1.7705,-4.2185 0,-1.1186 0.2685,-2.122 0.8054,-3.0041 0.5369,-0.882 1.2911,-1.5532 2.2562,-2.0198 0.9652,-0.4666 2.3649,-0.8756 4.1866,-1.2272 2.4544,-0.4602 4.1609,-0.8948 5.1069,-1.2911l0 -0.5241c0,-1.0163 -0.2493,-1.7321 -0.7478,-2.1668 -0.4986,-0.4282 -1.4381,-0.6455 -2.8251,-0.6455 -0.9396,0 -1.6683,0.1853 -2.1924,0.556 -0.5241,0.3644 -0.9459,1.0099 -1.2719,1.9367zm7.0372 4.2697c-0.6711,0.2237 -1.7385,0.4921 -3.2022,0.8053 -1.4573,0.3132 -2.4097,0.62 -2.8635,0.914 -0.6839,0.4922 -1.029,1.1058 -1.029,1.8536 0,0.7414 0.2748,1.3742 0.8245,1.9111 0.5497,0.5369 1.2464,0.8054 2.0964,0.8054 0.9524,0 1.8536,-0.3132 2.7165,-0.9332 0.6392,-0.473 1.0546,-1.0547 1.2528,-1.745 0.1406,-0.4474 0.2045,-1.3039 0.2045,-2.563l0 -1.0482zm10.1692 9.5491l0 -27.4522 5.2667 0 0 14.5666 6.1552 -6.9989 6.4811 0 -6.7943 7.261 7.2801 12.6235 -5.6694 0 -5.0047 -8.9292 -2.448 2.5631 0 6.3661 -5.2667 0zm33.0321 -6.3277l5.2476 0.8756c-0.6776,1.9239 -1.7386,3.3876 -3.1959,4.3911 -1.4509,1.0099 -3.2725,1.5084 -5.4585,1.5084 -3.4579,0 -6.0145,-1.1249 -7.6764,-3.3876 -1.3102,-1.8088 -1.9686,-4.097 -1.9686,-6.8518 0,-3.2981 0.8629,-5.8804 2.5886,-7.7467 1.7194,-1.8664 3.899,-2.7996 6.5323,-2.7996 2.9594,0 5.2923,0.9779 7.0053,2.9338 1.7066,1.9558 2.5247,4.9471 2.4544,8.9803l-13.186 0c0.0383,1.5596 0.4602,2.774 1.2719,3.6368 0.8118,0.8693 1.828,1.3039 3.0361,1.3039 0.8245,0 1.5148,-0.2237 2.0773,-0.6711 0.5624,-0.4538 0.9907,-1.176 1.2719,-2.1731zm0.3004 -5.3179c-0.0383,-1.5276 -0.4282,-2.6845 -1.1761,-3.4771 -0.7478,-0.7925 -1.6618,-1.1888 -2.7356,-1.1888 -1.1505,0 -2.0965,0.4218 -2.8443,1.2591 -0.7478,0.8309 -1.1185,1.9687 -1.1057,3.4068l7.8617 0zm14.5538 11.6456l-5.2603 0 0 -19.8845 4.8832 0 0 2.8251c0.8373,-1.3358 1.5916,-2.2179 2.2563,-2.6397 0.6711,-0.4219 1.4253,-0.6392 2.2754,-0.6392 1.2017,0 2.3522,0.3324 3.4643,0.9971l-1.6299 4.5828c-0.882,-0.5688 -1.7065,-0.8564 -2.4672,-0.8564 -0.7414,0 -1.3614,0.1981 -1.8727,0.6072 -0.5177,0.4026 -0.914,1.1377 -1.208,2.1987 -0.2941,1.061 -0.4411,3.2853 -0.4411,6.6665l0 6.1424z"/>
 </g>
</svg>
